<svg version="1" xmlns="http://www.w3.org/2000/svg" width="682.667" height="682.667" viewBox="0 0 512.000000 512.000000"><path d="M0 256v256h512V0H0v256zm200.4-140.3c1.4 3.8 14.5 38.5 29 77.3 24.9 66.3 26.5 70.3 27.6 67.5.6-1.7 13-34.8 27.5-73.6 14.5-38.9 27-72.3 27.9-74.3l1.5-3.6h73.9l.6 2.7c.8 3.8 48.6 285.6 48.6 286.5 0 .5-16.9.8-37.5.8-29.3 0-37.5-.3-37.5-1.3-.1-.6-5.6-37.9-12.4-82.7-12.2-80.8-12.3-81.5-14-78-.9 1.9-16.2 39-34 82.5l-32.3 79h-30.6l-32.1-82.4c-27.5-70.9-32.2-82.1-32.8-79.5-.5 1.6-6 37.8-12.3 80.4-6.3 42.6-11.7 78.5-12 79.7l-.5 2.3H74l.5-2.3c.3-1.2 11.3-66.1 24.6-144.1 13.2-78.1 24.2-142.4 24.5-142.8.3-.4 17.1-.8 37.4-.8h36.8l2.6 6.7z"/></svg>